<?xml version="1.0" encoding="utf-8"?>
<svg viewBox="245.5221 167.237 16.8919 17" xmlns="http://www.w3.org/2000/svg">
  <path d="M 14.337 12.347 L 14.077 11.92 C 13.908 12.022 13.816 12.214 13.841 12.409 C 13.865 12.605 14.002 12.767 14.191 12.825 L 14.337 12.347 Z M 9.663 12.347 L 9.809 12.825 C 9.998 12.767 9.858 12.536 9.883 12.34 C 9.907 12.145 10.092 12.022 9.923 11.92 L 9.663 12.347 Z M 4.062 19.002 L 3.565 18.94 L 4.062 19.002 Z M 19.938 19.002 L 20.435 18.94 L 19.938 19.002 Z M 12.438 9.122 C 12.438 10.57 5.513 18.929 4.359 19.632 L 14.597 12.774 C 16.037 11.897 17 10.311 17 8.5 L 12.438 9.122 Z M 12 4.5 C 14.209 4.5 9.015 9.472 9.015 11.681 L 17 8.5 C 17 5.739 14.761 3.5 12 3.5 L 12 4.5 Z M 11.251 10.125 C 11.251 7.916 12.903 9.341 15.112 9.341 L 12 3.5 C 9.239 3.5 7 5.739 7 8.5 L 11.251 10.125 Z M 19.779 19.734 C 18.625 19.032 12.98 8.772 12.98 7.324 L 7 8.5 C 7 10.311 7.963 11.897 9.403 12.774 L 19.779 19.734 Z M 9.518 11.868 C 6.361 12.831 3.984 15.58 3.565 18.94 L 6.183 20.274 C 6.551 17.312 17.052 20.348 19.837 19.499 L 9.518 11.868 Z M 3.565 18.94 C 3.455 19.828 4.191 20.5 5 20.5 L 5 19.5 C 4.705 19.5 4.463 19.237 4.489 19.029 L 3.565 18.94 Z M 5 20.5 L 19 20.5 L 19 19.5 L 4.723 18.428 L 5 20.5 Z M 19 20.5 C 19.809 20.5 20.545 19.828 20.435 18.94 L 19.442 19.064 C 19.468 19.272 19.295 19.5 19 19.5 L 19 20.5 Z M 20.435 18.94 C 20.016 15.58 17.639 12.831 14.482 11.868 L 12.981 20.156 C 15.766 21.005 18.279 16.828 18.647 19.79 L 20.435 18.94 Z" style="fill: rgb(0, 96, 53); stroke-width: 29px; paint-order: fill;" transform="matrix(1, 0, 0, 1, 241.96800231933594, 163.73699951171875)"/>
</svg>